PathFileType	4	(X/Y/Z)	/Users/itak/Documents/Research/Walk-IL/dataset/trc/00280_00010.trc
DataRate	CameraRate	NumFrames	NumMarkers	Units	OrigDataRate	OrigDataStartFrame	OrigNumFrames
100.000000	100.000000	4	53	mm	100.000000	231	616
Frame#	Time	RPSI			LPSI			L3			STRN			T10			C7			CLAV			RBAK			LBAK			LSHO			LUPA			LAEL			LAOL			LWTS			LWPS			LFRA			LIFD			LHPS			LHTS			RSHO			RUPA			RAEL			RAOL			RWTS			RWPS			RFRA			RIFD			RHTS			RHPS			RBHD			LFHD			RFHD			LBHD			LHIP			RASI			LASI			LKNE			LTHI			LANK			LTIP			LTOE			LMT1			LMT5			LHEE			RKNE			RANK			RTIP			RTOE			RMT1			RMT5			RHEE			RHIP			RTHI			
		X1	Y1	Z1	X2	Y2	Z2	X3	Y3	Z3	X4	Y4	Z4	X5	Y5	Z5	X6	Y6	Z6	X7	Y7	Z7	X8	Y8	Z8	X9	Y9	Z9	X10	Y10	Z10	X11	Y11	Z11	X12	Y12	Z12	X13	Y13	Z13	X14	Y14	Z14	X15	Y15	Z15	X16	Y16	Z16	X17	Y17	Z17	X18	Y18	Z18	X19	Y19	Z19	X20	Y20	Z20	X21	Y21	Z21	X22	Y22	Z22	X23	Y23	Z23	X24	Y24	Z24	X25	Y25	Z25	X26	Y26	Z26	X27	Y27	Z27	X28	Y28	Z28	X29	Y29	Z29	X30	Y30	Z30	X31	Y31	Z31	X32	Y32	Z32	X33	Y33	Z33	X34	Y34	Z34	X35	Y35	Z35	X36	Y36	Z36	X37	Y37	Z37	X38	Y38	Z38	X39	Y39	Z39	X40	Y40	Z40	X41	Y41	Z41	X42	Y42	Z42	X43	Y43	Z43	X44	Y44	Z44	X45	Y45	Z45	X46	Y46	Z46	X47	Y47	Z47	X48	Y48	Z48	X49	Y49	Z49	X50	Y50	Z50	X51	Y51	Z51	X52	Y52	Z52	X53	Y53	Z53	

232	2.31	854.9346313476562	972.6101684570312	-195.6456756591797	741.9077758789062	952.8313598632812	-63.28104019165039	779.3134765625	1033.100463867188	-121.7708053588867	592.2520141601562	1209.838989257812	-291.0325622558594	783.6375732421875	1150.469848632812	-102.6597747802734	734.28369140625	1394.4833984375	-122.1676635742188	633.5655517578125	1309.271118164062	-241.0536956787109	828.3898315429688	1258.206665039062	-139.5087127685547	672.5048217773438	1357.6455078125	-36.47389602661133	572.2714233398438	1360.404907226562	-68.46343231201172	539.3546142578125	1243.817993164062	3.740768671035767	532.3925170898438	1040.307373046875	10.60707950592041	618.776611328125	1028.574462890625	12.49772357940674	499.1611938476562	821.8746948242188	-80.03031921386719	490.5567321777344	809.666259765625	-7.39545202255249	517.2264404296875	935.8634643554688	8.089977264404297	477.2443542480469	635.355224609375	-78.48964691162109	482.6715393066406	724.2203369140625	-12.13106155395508	461.4813842773438	726.392333984375	-75.6533203125	802.547119140625	1374.104736328125	-280.7489624023438	860.1939697265625	1320.473754882812	-320.1757202148438	933.3578491210938	1061.540771484375	-335.1808776855469	875.8937377929688	1048.318725585938	-260.2471008300781	879.6119384765625	826.2149658203125	-396.2550048828125	964.2081909179688	836.612060546875	-390.3415222167969	943.4763793945312	996.3283081054688	-360.8437805175781	913.1087036132812	644.4732055664062	-390.9331970214844	904.4566040039062	711.5982055664062	-427.6271362304688	972.0408935546875	725.0077514648438	-408.5630187988281	744.1143188476562	1556.629760742188	-235.7651519775391	530.7890625	1561.25830078125	-226.3765563964844	581.7742919921875	1558.137817382812	-304.6080932617188	667.9970092773438	1550.864868164062	-111.0339126586914	632.6113891601562	896.5972290039062	-32.91693878173828	703.8268432617188	937.3096923828125	-358.9300842285156	552.6713256835938	905.8807373046875	-157.2038726806641	671.8633422851562	433.7861938476562	-84.60597991943359	637.4627685546875	573.7777709960938	-73.48451995849609	940.0032348632812	130.3770904541016	124.3284912109375	802.6156616210938	273.8172302246094	27.3303279876709	969.0336303710938	25.94990158081055	-40.44540786743164	1013.539306640625	56.41934204101562	-1.751822948455811	914.146240234375	40.58313751220703	46.02126693725586	996.7435913085938	176.7510070800781	128.6904296875	681.5455932617188	492.92236328125	-436.7117309570312	701.906005859375	30.35723114013672	-458.39892578125	652.0689697265625	368.779296875	-451.9273071289062	502.1275939941406	52.11774444580078	-454.0416870117188	546.0640258789062	47.86920547485352	-401.2477416992188	605.42919921875	25.41610145568848	-502.0033874511719	737.8391723632812	30.12847709655762	-394.7847595214844	839.5597534179688	937.24462890625	-345.5027160644531	753.10107421875	746.1423950195312	-418.212890625	
233	2.32	848.5809936523438	975.1961059570312	-204.9861145019531	738.3738403320312	954.566650390625	-70.60491180419922	774.37353515625	1036.03955078125	-129.8913116455078	583.50830078125	1211.79150390625	-296.7648620605469	778.464599609375	1153.161987304688	-111.2200546264648	728.2459716796875	1396.845947265625	-130.6001586914062	625.7025146484375	1311.507934570312	-247.7147216796875	822.33154296875	1260.713623046875	-149.1690826416016	667.691650390625	1360.384155273438	-43.93023681640625	567.1634521484375	1363.332763671875	-74.40817260742188	534.2556762695312	1246.986938476562	-2.041867971420288	528.0995483398438	1043.40771484375	6.041419982910156	614.3352661132812	1032.289672851562	7.841912746429443	498.8546447753906	821.0855102539062	-78.95149230957031	490.9072265625	811.0680541992188	-5.94856071472168	514.6168212890625	938.4992065429688	5.766377925872803	484.2417602539062	633.6170043945312	-69.46768951416016	485.7865600585938	725.2914428710938	-7.304405212402344	464.7095947265625	724.105224609375	-70.91552734375	793.9060668945312	1376.155517578125	-290.2088623046875	850.9005126953125	1322.4609375	-330.6155700683594	923.6431884765625	1063.614135742188	-347.1388549804688	867.7613525390625	1050.30126953125	-270.9894409179688	868.0645141601562	828.4320678710938	-407.7571716308594	952.7845458984375	838.5167236328125	-403.4163513183594	933.1488647460938	998.3295288085938	-373.1186218261719	900.921630859375	646.5620727539062	-403.4390869140625	891.9511108398438	713.961181640625	-439.9424133300781	959.92236328125	726.9625854492188	-422.2034301757812	737.0838623046875	1558.313842773438	-244.4734344482422	524.03759765625	1563.760620117188	-232.6361236572266	573.9954833984375	1560.175903320312	-311.479736328125	662.300537109375	1553.245483398438	-118.8722229003906	629.6215209960938	898.0829467773438	-38.70917510986328	694.779052734375	938.8016967773438	-365.2316284179688	547.5064697265625	907.9292602539062	-161.1551971435547	657.6867065429688	433.8486633300781	-94.25222015380859	627.4293212890625	574.2186279296875	-81.78983306884766	935.168701171875	140.9129028320312	113.6293563842773	793.501220703125	279.0532836914062	17.33378410339355	966.67431640625	25.09947967529297	-42.5250244140625	1009.450012207031	61.58573150634766	-8.330775260925293	912.1336669921875	43.61961364746094	43.12225723266602	989.945556640625	189.5698547363281	112.8379211425781	678.0670776367188	492.4585571289062	-440.5506896972656	701.753173828125	30.35355186462402	-458.4131469726562	649.40673828125	368.0875244140625	-454.8844604492188	501.7091674804688	51.055419921875	-453.7276306152344	545.8689575195312	47.26304244995117	-401.1294250488281	605.3041381835938	25.41688537597656	-501.9242248535156	737.7925415039062	30.12513160705566	-394.8285522460938	830.9461059570312	939.7822265625	-354.7448425292969	746.9752197265625	746.3506469726562	-424.88232421875	
234	2.33	842.2948608398438	977.6587524414062	-214.0984191894531	734.9951171875	956.1088256835938	-77.69773101806641	769.4509887695312	1038.780517578125	-138.0430603027344	574.7164916992188	1213.4775390625	-302.1002197265625	773.4109497070312	1155.785278320312	-119.7203826904297	722.1795043945312	1399.130737304688	-138.9021911621094	617.7438354492188	1313.515747070312	-254.0861663818359	816.3226928710938	1263.2138671875	-158.7958221435547	662.968505859375	1362.972412109375	-51.23213195800781	562.1148681640625	1366.052856445312	-80.05995178222656	529.4664306640625	1249.953247070312	-7.408493518829346	523.8909912109375	1046.314086914062	2.053942441940308	610.0633544921875	1035.809326171875	3.78632378578186	498.9170532226562	820.6271362304688	-77.8375244140625	490.9431457519531	812.6558837890625	-4.694480895996094	511.9981384277344	941.185791015625	3.686157941818237	491.93212890625	632.7216796875	-61.36031723022461	488.6680297851562	726.6387939453125	-3.023528099060059	468.3868103027344	722.3472290039062	-66.76817321777344	785.0708618164062	1378.1435546875	-299.5722961425781	841.3927001953125	1324.46044921875	-340.9770812988281	913.8757934570312	1065.709594726562	-359.1267700195312	859.7140502929688	1052.262573242188	-281.6678161621094	856.203125	830.7044677734375	-419.081298828125	941.0322875976562	840.3721313476562	-416.5270690917969	922.6849975585938	1000.316772460938	-385.4076538085938	888.18896484375	648.7097778320312	-416.0134582519531	878.9066162109375	716.4015502929688	-452.2859497070312	947.2523803710938	728.8637084960938	-435.9879150390625	729.9327392578125	1559.884399414062	-252.9834747314453	517.218017578125	1566.123901367188	-238.6678619384766	566.1201782226562	1562.105590820312	-318.1260375976562	656.5176391601562	1555.505615234375	-126.5244674682617	626.754150390625	899.2783203125	-44.36493301391602	685.8623657226562	940.07421875	-371.2774353027344	542.5255126953125	909.75830078125	-164.8292388916016	643.1358642578125	434.1867065429688	-104.001594543457	617.2689208984375	574.6904907226562	-90.05696105957031	929.251220703125	151.8318634033203	101.781623840332	783.56103515625	284.3854675292969	6.47703218460083	963.43359375	24.19330215454102	-45.34553909301758	1004.200317382812	67.14961242675781	-15.93039989471436	909.301513671875	47.78229141235352	39.44329071044922	982.033447265625	202.1906585693359	95.80421447753906	674.6229858398438	491.9918212890625	-444.1095886230469	701.5676879882812	30.41154289245605	-458.3731994628906	646.7904663085938	367.4125366210938	-457.5585021972656	501.2101135253906	49.91789245605469	-453.3296203613281	545.5940551757812	46.5764274597168	-400.9502563476562	605.1370239257812	25.45627975463867	-501.7429504394531	737.7374877929688	30.13137245178223	-394.8323974609375	822.3253784179688	942.0247192382812	-363.6062316894531	741.021728515625	746.4608154296875	-431.1061401367188	
235	2.34	836.052978515625	979.9475708007812	-222.9231109619141	731.6619873046875	957.4308471679688	-84.55604553222656	764.5122680664062	1041.243530273438	-146.1514587402344	565.9220581054688	1214.879638671875	-307.03857421875	768.4532470703125	1158.306518554688	-128.1290893554688	716.0972900390625	1401.317138671875	-147.0642547607422	609.7249755859375	1315.260375976562	-260.15478515625	810.3574829101562	1265.677001953125	-168.3690795898438	658.3434448242188	1365.390747070312	-58.37704849243164	557.1204833984375	1368.511596679688	-85.45976257324219	525.0494995117188	1252.68310546875	-12.33199119567871	519.8759765625	1048.990844726562	-1.329549551010132	606.0851440429688	1039.099365234375	0.2391420900821686	499.3143005371094	820.4718017578125	-76.70960235595703	490.6808471679688	814.3387451171875	-3.620681762695312	509.4412231445312	943.8470458984375	1.89429771900177	499.9969787597656	632.6258544921875	-54.3252067565918	491.2497253417969	728.1475219726562	0.6798259615898132	472.3605651855469	721.099853515625	-63.24969863891602	776.0643920898438	1380.039794921875	-308.8165283203125	831.6898193359375	1326.4326171875	-351.2403869628906	904.0413818359375	1067.787353515625	-371.1597900390625	851.72509765625	1054.149291992188	-292.3269653320312	844.0584106445312	832.989501953125	-430.2324523925781	928.9581909179688	842.1661376953125	-429.6700134277344	912.0751342773438	1002.256896972656	-397.7190551757812	874.9525756835938	650.8562622070312	-428.6307678222656	865.3535766601562	718.8673706054688	-464.6221313476562	934.039306640625	730.6837768554688	-449.8540344238281	722.656005859375	1561.335083007812	-261.2940979003906	510.3188171386719	1568.304809570312	-244.4566955566406	558.13671875	1563.897705078125	-324.5291442871094	650.6644287109375	1557.614501953125	-133.9792022705078	623.9163818359375	900.184326171875	-49.86905288696289	677.1183471679688	941.1754760742188	-377.1162414550781	537.6585693359375	911.3449096679688	-168.3096160888672	628.3135986328125	434.8165893554688	-113.9505233764648	607.0115356445312	575.224365234375	-98.30907440185547	922.280517578125	162.9125366210938	88.86277008056641	772.7906494140625	289.7228393554688	-5.216634273529053	958.9618530273438	23.38932228088379	-49.09767913818359	997.5773315429688	72.99541473388672	-24.74125862121582	905.504638671875	53.0308952331543	34.80717086791992	973.14794921875	214.3810882568359	77.79296875	671.09521484375	491.5477600097656	-447.4445190429688	701.3580322265625	30.5357723236084	-458.2897338867188	644.1343994140625	366.7552490234375	-459.9745483398438	500.6461486816406	48.71812057495117	-452.8857116699219	545.2461547851562	45.82988357543945	-400.7385864257812	604.939453125	25.52256393432617	-501.4856872558594	737.6763916015625	30.15804100036621	-394.8074035644531	813.75	943.9706420898438	-372.0593872070312	735.0489501953125	746.5922241210938	-436.9556274414062	
